<svg width="30" height="31" viewBox="0 0 30 31" fill="none" xmlns="http://www.w3.org/2000/svg">
<path d="M7.20968 13.2374C6.91005 13.2374 6.64372 13.3555 6.44396 13.5748C6.22756 13.794 6.12769 14.0639 6.12769 14.3844C6.12769 14.7048 6.22756 14.9578 6.44396 15.1939C6.66036 15.4132 6.91005 15.5313 7.20968 15.5313C7.50931 15.5313 7.77565 15.4132 7.99205 15.1939C8.20845 14.9747 8.32497 14.7048 8.32497 14.3844C8.32497 14.0639 8.20845 13.794 7.99205 13.5748C7.77565 13.3386 7.52596 13.2374 7.20968 13.2374Z" fill="#DCDCDC"/>
<path d="M16.5481 13.2202C16.2484 13.2202 15.9821 13.3383 15.7823 13.5575C15.5659 13.7768 15.4661 14.0467 15.4661 14.3671C15.4661 14.6876 15.5659 14.9406 15.7823 15.1767C15.9987 15.396 16.2484 15.5141 16.5481 15.5141C16.8477 15.5141 17.114 15.396 17.3304 15.1767C17.5468 14.9575 17.6634 14.6876 17.6634 14.3671C17.6634 14.0467 17.5468 13.7937 17.3304 13.5575C17.1307 13.3214 16.8643 13.2202 16.5481 13.2202Z" fill="#DCDCDC"/>
<path d="M22.7903 13.2374C22.4906 13.2374 22.2243 13.3555 22.0245 13.5748C21.8081 13.794 21.7083 14.0639 21.7083 14.3844C21.7083 14.7048 21.8081 14.9578 22.0245 15.1939C22.2409 15.4132 22.4906 15.5313 22.7903 15.5313C23.0899 15.5313 23.3562 15.4132 23.5726 15.1939C23.789 14.9747 23.9056 14.7048 23.9056 14.3844C23.9056 14.0639 23.789 13.794 23.5726 13.5748C23.3562 13.3386 23.0899 13.2374 22.7903 13.2374Z" fill="#DCDCDC"/>
<path d="M25.5536 4.90521H4.44636C2.83169 4.90521 1.5 6.25454 1.5 7.89059V19.9839C1.5 21.62 2.83169 22.9693 4.44636 22.9693H12.7361C12.7361 22.9693 14.3342 27.4052 14.9168 27.4052C15.4994 27.4052 17.2306 22.9693 17.2306 22.9693H25.5536C27.1683 22.9693 28.5 21.62 28.5 19.9839V7.89059C28.5 6.25454 27.1683 4.90521 25.5536 4.90521ZM9.34032 16.0709C8.92417 16.5431 8.27497 16.7455 7.57583 16.7455C6.94328 16.7455 6.47719 16.56 6.14427 16.2901H6.12762V16.6275H4.54624V9.62785H6.12762V12.3096H6.16091C6.59371 11.9386 7.15968 11.8205 7.82552 11.7868C8.39149 11.7699 8.99075 12.1241 9.35697 12.5458C9.70654 12.9674 9.97287 13.6252 9.97287 14.3505C9.97287 15.1432 9.77312 15.5986 9.34032 16.0709ZM12.7528 16.6949H11.1381C11.1381 16.6949 11.1381 13.018 11.1381 12.3602C11.1381 11.3651 10.3557 11.2302 10.3557 11.2302V9.49292C10.3557 9.49292 12.6196 9.62785 12.7528 12.4108C12.7528 13.2036 12.7528 16.6949 12.7528 16.6949ZM19.0949 15.3625C18.9618 15.6829 18.762 15.9528 18.4957 16.2058C18.246 16.4419 17.9464 16.6275 17.6134 16.7624C17.2805 16.8973 16.931 16.9648 16.5647 16.9648C16.1985 16.9648 15.849 16.8973 15.5327 16.7624C15.1998 16.6275 14.9001 16.4419 14.6504 16.2058C14.3841 15.9528 14.1843 15.6661 14.0512 15.3625C13.918 15.0589 13.8514 14.7216 13.8514 14.3674C13.8514 14.0132 13.918 13.6927 14.0512 13.3722C14.1843 13.0686 14.3841 12.7819 14.6504 12.5289C14.9168 12.2928 15.1998 12.1072 15.5327 11.9723C15.8656 11.8374 16.2152 11.7699 16.5647 11.7699C16.931 11.7699 17.2805 11.8374 17.6134 11.9723C17.9464 12.1072 18.246 12.2928 18.4957 12.5289C18.762 12.7819 18.9451 13.0518 19.0949 13.3722C19.2281 13.6927 19.2947 14.0132 19.2947 14.3674C19.2947 14.7216 19.2281 15.042 19.0949 15.3625ZM25.4538 16.054C25.4538 17.2853 25.2207 18.0274 24.688 18.5503C24.0388 19.1743 23.1233 19.2081 22.3576 19.1069V17.8419C23.0068 17.9093 23.889 17.4708 23.889 16.6275V16.307H23.8724C23.5062 16.813 22.9901 16.9985 22.2744 16.9985C21.6252 16.9985 21.0592 16.7624 20.6763 16.307C20.2935 15.8516 20.1104 15.2444 20.1104 14.4854C20.1104 13.6252 20.3268 12.9506 20.7429 12.4446C21.1757 11.9386 21.775 11.7024 22.4741 11.7024C23.09 11.7024 23.4895 11.8542 23.8724 12.2084H23.889V11.8205H25.4704V16.054H25.4538Z" fill="#DCDCDC"/>
</svg>
