<svg width="30" height="31" viewBox="0 0 30 31" fill="none" xmlns="http://www.w3.org/2000/svg">
<path d="M15.0001 11.913C12.8604 11.913 11.0417 13.7317 11.0417 15.8713C11.0417 18.0109 12.8604 19.8296 15.0001 19.8296C17.1397 19.8296 18.9584 18.0109 18.9584 15.8713C18.9584 13.7317 17.1397 11.913 15.0001 11.913Z" fill="#DCDCDC"/>
<path d="M20.0739 3.99609H10.0341C6.14773 3.99609 3.125 7.01882 3.125 10.7972V20.837C3.125 24.7234 6.14773 27.7461 10.0341 27.7461H20.0739C23.8523 27.7461 26.875 24.7234 26.875 20.837V10.7972C26.875 7.01882 23.8523 3.99609 20.0739 3.99609ZM15 22.1325C11.5455 22.1325 8.84659 19.3256 8.84659 15.979C8.84659 12.6325 11.5455 9.71769 15 9.71769C18.4545 9.71769 21.1534 12.5245 21.1534 15.8711C21.1534 19.2177 18.4545 22.1325 15 22.1325ZM21.3693 11.0131C20.6136 11.0131 19.9659 10.3654 19.9659 9.60973C19.9659 8.85405 20.6136 8.20632 21.3693 8.20632C22.125 8.20632 22.7727 8.85405 22.7727 9.60973C22.7727 10.3654 22.125 11.0131 21.3693 11.0131Z" fill="#DCDCDC"/>
</svg>
