<svg width="35" height="37" viewBox="0 0 35 37" fill="none" xmlns="http://www.w3.org/2000/svg">
<g filter="url(#filter0_d_287_560)">
<mask id="path-1-outside-1_287_560" maskUnits="userSpaceOnUse" x="4" y="0" width="27" height="29" fill="black">
<rect fill="white" x="4" width="27" height="29"/>
<path d="M18.8793 11.8915C20.0866 9.44005 23.748 5.5291 29.084 8.24477C28.9217 13.9399 23.4707 14.9319 20.6052 14.6876L18.8793 11.8915Z"/>
<path d="M18.8793 11.8915C19.8645 10.3773 23.1167 8.41503 26.4683 9.65732C25.9387 13.0027 22.4949 14.6438 20.6052 14.6876L18.8793 11.8915Z"/>
<path fill-rule="evenodd" clip-rule="evenodd" d="M18.4889 12.1023L20.2148 14.8984L20.552 14.7163L20.5233 15.5274C22.0819 15.6603 24.3595 15.4644 26.3052 14.426C28.3118 13.3549 29.8955 11.4183 29.9853 8.26724L30 7.75087L29.5149 7.504C26.5609 6.00062 23.9761 6.31355 21.9794 7.40181C20.0431 8.45719 18.7177 10.2039 18.0604 11.5386L18.8264 11.92L18.4889 12.1023ZM20.6052 14.6876C21.5993 14.7723 22.9046 14.7083 24.1923 14.3507C26.6163 13.6776 28.978 11.9642 29.084 8.24477C25.5973 6.47026 22.8256 7.52515 20.9863 9.15341C20.0109 10.017 19.2977 11.0419 18.8793 11.8915L20.6052 14.6876Z"/>
<path d="M20.6047 14.3131C23.4781 14.0654 28.9298 15.0758 29.0835 20.756C23.7293 23.4721 20.0853 19.5526 18.8788 17.1093L20.6047 14.3131Z"/>
<path d="M20.6047 14.3131C22.4993 14.3541 25.9422 16.0074 26.4678 19.3435C23.1055 20.5872 19.8642 18.6181 18.8788 17.1093L20.6047 14.3131Z"/>
<path fill-rule="evenodd" clip-rule="evenodd" d="M20.2143 14.1023L18.4884 16.8984L18.8257 17.0805L18.0603 17.4629C18.7165 18.7918 20.0367 20.5388 21.971 21.5957C23.966 22.6856 26.5509 23.0002 29.5133 21.4973L29.9988 21.2511L29.9848 20.7347C29.8997 17.5902 28.3176 15.6528 26.3117 14.5796C24.3664 13.5388 22.0864 13.3385 20.522 13.4734L20.5518 14.2846L20.2143 14.1023ZM18.8788 17.1093C19.2974 17.9569 20.0093 18.9822 20.9842 19.8465C22.8195 21.4735 25.5868 22.5299 29.0835 20.756C28.9831 17.0444 26.6205 15.3266 24.1933 14.6509C22.906 14.2925 21.6005 14.2273 20.6047 14.3131L18.8788 17.1093Z"/>
<path d="M16.1207 11.8916C14.9134 9.44016 11.252 5.5292 5.91601 8.24487C6.07829 13.94 11.5293 14.932 14.3948 14.6877L16.1207 11.8916Z"/>
<path d="M16.1207 11.8916C15.1355 10.3774 11.8833 8.41514 8.5317 9.65742C9.06129 13.0029 12.5051 14.6439 14.3948 14.6877L16.1207 11.8916Z"/>
<path fill-rule="evenodd" clip-rule="evenodd" d="M16.5111 12.1024L14.7852 14.8985L14.448 14.7164L14.4767 15.5275C12.9181 15.6604 10.6405 15.4645 8.69483 14.4261C6.68816 13.355 5.1045 11.4184 5.01471 8.26734L5 7.75098L5.48509 7.5041C8.43906 6.00072 11.0239 6.31366 13.0206 7.40192C14.9569 8.4573 16.2823 10.204 16.9396 11.5387L16.1736 11.9201L16.5111 12.1024ZM14.3948 14.6877C13.4007 14.7725 12.0954 14.7084 10.8077 14.3508C8.38367 13.6777 6.02199 11.9643 5.91601 8.24487C9.40272 6.47036 12.1744 7.52526 14.0137 9.15352C14.9891 10.0171 15.7023 11.042 16.1207 11.8916L14.3948 14.6877Z"/>
<path d="M14.3952 14.3131C11.5219 14.0653 6.0701 15.0757 5.91648 20.756C11.2706 23.4721 14.9146 19.5526 16.1211 17.1092L14.3952 14.3131Z"/>
<path d="M14.3952 14.3131C12.5007 14.354 9.05776 16.0073 8.53217 19.3434C11.8944 20.5871 15.1358 18.618 16.1211 17.1092L14.3952 14.3131Z"/>
<path fill-rule="evenodd" clip-rule="evenodd" d="M14.7856 14.1022L16.5115 16.8984L16.1743 17.0805L16.9397 17.4628C16.2834 18.7918 14.9632 20.5388 13.0289 21.5956C11.0339 22.6856 8.44905 23.0001 5.48664 21.4973L5.00119 21.251L5.01516 20.7346C5.1002 17.5901 6.68236 15.6527 8.68828 14.5795C10.6336 13.5387 12.9136 13.3384 14.478 13.4733L14.4481 14.2845L14.7856 14.1022ZM16.1211 17.1092C15.7026 17.9568 14.9906 18.9822 14.0157 19.8464C12.1804 21.4735 9.41316 22.5298 5.91648 20.756C6.01686 17.0443 8.37942 15.3266 10.8066 14.6508C12.0939 14.2925 13.3994 14.2272 14.3952 14.3131L16.1211 17.1092Z"/>
<path d="M19.2254 12.0785C20.8914 9.87488 22.6818 4.9535 17.4994 1.98895C12.3076 4.96798 14.1146 9.8795 15.7736 12.0785H19.2254Z"/>
<path d="M19.2254 12.0785C20.1347 10.5234 20.3254 6.90783 17.4994 4.81405C14.6668 6.91575 14.8692 10.5259 15.7736 12.0785H19.2254Z"/>
<path fill-rule="evenodd" clip-rule="evenodd" d="M19.2254 12.5002L15.7736 12.5002L15.7736 12.1359L15.0369 12.5648C14.1346 11.3687 13.1772 9.4258 13.1658 7.3305C13.1541 5.1695 14.1554 2.91837 17.028 1.2701L17.4987 1L17.9698 1.2695C20.8388 2.91065 21.8414 5.16096 21.8322 7.32246C21.8232 9.41865 20.8686 11.3657 19.9615 12.5655L19.2254 12.1357V12.5002ZM15.7736 12.0785C15.198 11.3156 14.6047 10.2263 14.2919 9.00444C13.7031 6.70427 14.1087 3.9345 17.4994 1.98895C20.8858 3.92608 21.2949 6.69874 20.707 9.00271C20.3951 10.2247 19.8028 11.3148 19.2254 12.0785H15.7736Z"/>
<path d="M19.2254 16.9215C20.8914 19.1251 22.6818 24.0465 17.4994 27.011C12.3076 24.032 14.1146 19.1205 15.7736 16.9215H19.2254Z"/>
<path d="M19.2254 16.9215C20.1347 18.4766 20.3254 22.0922 17.4994 24.186C14.6668 22.0842 14.8692 18.4741 15.7736 16.9215H19.2254Z"/>
<path fill-rule="evenodd" clip-rule="evenodd" d="M19.2254 16.4998H15.7736V16.8641L15.0369 16.4352C14.1346 17.6313 13.1772 19.5742 13.1658 21.6695C13.1541 23.8305 14.1554 26.0816 17.028 27.7299L17.4987 28L17.9698 27.7305C20.8388 26.0893 21.8414 23.839 21.8322 21.6775C21.8232 19.5814 20.8686 17.6343 19.9615 16.4345L19.2254 16.8643V16.4998ZM15.7736 16.9215C15.198 17.6844 14.6047 18.7737 14.2919 19.9956C13.7031 22.2957 14.1087 25.0655 17.4994 27.011C20.8858 25.0739 21.2949 22.3013 20.707 19.9973C20.3951 18.7753 19.8028 17.6852 19.2254 16.9215H15.7736Z"/>
<path d="M21.9429 14.5C21.9429 16.864 19.9537 18.7804 17.5 18.7804C15.0463 18.7804 13.0571 16.864 13.0571 14.5C13.0571 12.136 15.0463 10.2196 17.5 10.2196C19.9537 10.2196 21.9429 12.136 21.9429 14.5Z"/>
<path fill-rule="evenodd" clip-rule="evenodd" d="M22.8314 14.5C22.8314 17.3368 20.4445 19.6365 17.5 19.6365C14.5555 19.6365 12.1685 17.3368 12.1685 14.5C12.1685 11.6632 14.5555 9.36353 17.5 9.36353C20.4445 9.36353 22.8314 11.6632 22.8314 14.5ZM17.5 18.7804C19.9537 18.7804 21.9429 16.864 21.9429 14.5C21.9429 12.136 19.9537 10.2196 17.5 10.2196C15.0463 10.2196 13.0571 12.136 13.0571 14.5C13.0571 16.864 15.0463 18.7804 17.5 18.7804Z"/>
<path d="M20.1657 14.5C20.1657 15.9184 18.9722 17.0682 17.5 17.0682C16.0277 17.0682 14.8343 15.9184 14.8343 14.5C14.8343 13.0816 16.0277 11.9318 17.5 11.9318C18.9722 11.9318 20.1657 13.0816 20.1657 14.5Z"/>
</mask>
<path d="M18.8793 11.8915C20.0866 9.44005 23.748 5.5291 29.084 8.24477C28.9217 13.9399 23.4707 14.9319 20.6052 14.6876L18.8793 11.8915Z" fill="#962F2F"/>
<path d="M18.8793 11.8915C19.8645 10.3773 23.1167 8.41503 26.4683 9.65732C25.9387 13.0027 22.4949 14.6438 20.6052 14.6876L18.8793 11.8915Z" fill="#3D1818"/>
<path fill-rule="evenodd" clip-rule="evenodd" d="M18.4889 12.1023L20.2148 14.8984L20.552 14.7163L20.5233 15.5274C22.0819 15.6603 24.3595 15.4644 26.3052 14.426C28.3118 13.3549 29.8955 11.4183 29.9853 8.26724L30 7.75087L29.5149 7.504C26.5609 6.00062 23.9761 6.31355 21.9794 7.40181C20.0431 8.45719 18.7177 10.2039 18.0604 11.5386L18.8264 11.92L18.4889 12.1023ZM20.6052 14.6876C21.5993 14.7723 22.9046 14.7083 24.1923 14.3507C26.6163 13.6776 28.978 11.9642 29.084 8.24477C25.5973 6.47026 22.8256 7.52515 20.9863 9.15341C20.0109 10.017 19.2977 11.0419 18.8793 11.8915L20.6052 14.6876Z" fill="#F29797"/>
<path d="M20.6047 14.3131C23.4781 14.0654 28.9298 15.0758 29.0835 20.756C23.7293 23.4721 20.0853 19.5526 18.8788 17.1093L20.6047 14.3131Z" fill="#962F2F"/>
<path d="M20.6047 14.3131C22.4993 14.3541 25.9422 16.0074 26.4678 19.3435C23.1055 20.5872 19.8642 18.6181 18.8788 17.1093L20.6047 14.3131Z" fill="#3D1818"/>
<path fill-rule="evenodd" clip-rule="evenodd" d="M20.2143 14.1023L18.4884 16.8984L18.8257 17.0805L18.0603 17.4629C18.7165 18.7918 20.0367 20.5388 21.971 21.5957C23.966 22.6856 26.5509 23.0002 29.5133 21.4973L29.9988 21.2511L29.9848 20.7347C29.8997 17.5902 28.3176 15.6528 26.3117 14.5796C24.3664 13.5388 22.0864 13.3385 20.522 13.4734L20.5518 14.2846L20.2143 14.1023ZM18.8788 17.1093C19.2974 17.9569 20.0093 18.9822 20.9842 19.8465C22.8195 21.4735 25.5868 22.5299 29.0835 20.756C28.9831 17.0444 26.6205 15.3266 24.1933 14.6509C22.906 14.2925 21.6005 14.2273 20.6047 14.3131L18.8788 17.1093Z" fill="#F29797"/>
<path d="M16.1207 11.8916C14.9134 9.44016 11.252 5.5292 5.91601 8.24487C6.07829 13.94 11.5293 14.932 14.3948 14.6877L16.1207 11.8916Z" fill="#962F2F"/>
<path d="M16.1207 11.8916C15.1355 10.3774 11.8833 8.41514 8.5317 9.65742C9.06129 13.0029 12.5051 14.6439 14.3948 14.6877L16.1207 11.8916Z" fill="#3D1818"/>
<path fill-rule="evenodd" clip-rule="evenodd" d="M16.5111 12.1024L14.7852 14.8985L14.448 14.7164L14.4767 15.5275C12.9181 15.6604 10.6405 15.4645 8.69483 14.4261C6.68816 13.355 5.1045 11.4184 5.01471 8.26734L5 7.75098L5.48509 7.5041C8.43906 6.00072 11.0239 6.31366 13.0206 7.40192C14.9569 8.4573 16.2823 10.204 16.9396 11.5387L16.1736 11.9201L16.5111 12.1024ZM14.3948 14.6877C13.4007 14.7725 12.0954 14.7084 10.8077 14.3508C8.38367 13.6777 6.02199 11.9643 5.91601 8.24487C9.40272 6.47036 12.1744 7.52526 14.0137 9.15352C14.9891 10.0171 15.7023 11.042 16.1207 11.8916L14.3948 14.6877Z" fill="#F29797"/>
<path d="M14.3952 14.3131C11.5219 14.0653 6.0701 15.0757 5.91648 20.756C11.2706 23.4721 14.9146 19.5526 16.1211 17.1092L14.3952 14.3131Z" fill="#962F2F"/>
<path d="M14.3952 14.3131C12.5007 14.354 9.05776 16.0073 8.53217 19.3434C11.8944 20.5871 15.1358 18.618 16.1211 17.1092L14.3952 14.3131Z" fill="#3D1818"/>
<path fill-rule="evenodd" clip-rule="evenodd" d="M14.7856 14.1022L16.5115 16.8984L16.1743 17.0805L16.9397 17.4628C16.2834 18.7918 14.9632 20.5388 13.0289 21.5956C11.0339 22.6856 8.44905 23.0001 5.48664 21.4973L5.00119 21.251L5.01516 20.7346C5.1002 17.5901 6.68236 15.6527 8.68828 14.5795C10.6336 13.5387 12.9136 13.3384 14.478 13.4733L14.4481 14.2845L14.7856 14.1022ZM16.1211 17.1092C15.7026 17.9568 14.9906 18.9822 14.0157 19.8464C12.1804 21.4735 9.41316 22.5298 5.91648 20.756C6.01686 17.0443 8.37942 15.3266 10.8066 14.6508C12.0939 14.2925 13.3994 14.2272 14.3952 14.3131L16.1211 17.1092Z" fill="#F29797"/>
<path d="M19.2254 12.0785C20.8914 9.87488 22.6818 4.9535 17.4994 1.98895C12.3076 4.96798 14.1146 9.8795 15.7736 12.0785H19.2254Z" fill="#962F2F"/>
<path d="M19.2254 12.0785C20.1347 10.5234 20.3254 6.90783 17.4994 4.81405C14.6668 6.91575 14.8692 10.5259 15.7736 12.0785H19.2254Z" fill="#3D1818"/>
<path fill-rule="evenodd" clip-rule="evenodd" d="M19.2254 12.5002L15.7736 12.5002L15.7736 12.1359L15.0369 12.5648C14.1346 11.3687 13.1772 9.4258 13.1658 7.3305C13.1541 5.1695 14.1554 2.91837 17.028 1.2701L17.4987 1L17.9698 1.2695C20.8388 2.91065 21.8414 5.16096 21.8322 7.32246C21.8232 9.41865 20.8686 11.3657 19.9615 12.5655L19.2254 12.1357V12.5002ZM15.7736 12.0785C15.198 11.3156 14.6047 10.2263 14.2919 9.00444C13.7031 6.70427 14.1087 3.9345 17.4994 1.98895C20.8858 3.92608 21.2949 6.69874 20.707 9.00271C20.3951 10.2247 19.8028 11.3148 19.2254 12.0785H15.7736Z" fill="#F29797"/>
<path d="M19.2254 16.9215C20.8914 19.1251 22.6818 24.0465 17.4994 27.011C12.3076 24.032 14.1146 19.1205 15.7736 16.9215H19.2254Z" fill="#962F2F"/>
<path d="M19.2254 16.9215C20.1347 18.4766 20.3254 22.0922 17.4994 24.186C14.6668 22.0842 14.8692 18.4741 15.7736 16.9215H19.2254Z" fill="#3D1818"/>
<path fill-rule="evenodd" clip-rule="evenodd" d="M19.2254 16.4998H15.7736V16.8641L15.0369 16.4352C14.1346 17.6313 13.1772 19.5742 13.1658 21.6695C13.1541 23.8305 14.1554 26.0816 17.028 27.7299L17.4987 28L17.9698 27.7305C20.8388 26.0893 21.8414 23.839 21.8322 21.6775C21.8232 19.5814 20.8686 17.6343 19.9615 16.4345L19.2254 16.8643V16.4998ZM15.7736 16.9215C15.198 17.6844 14.6047 18.7737 14.2919 19.9956C13.7031 22.2957 14.1087 25.0655 17.4994 27.011C20.8858 25.0739 21.2949 22.3013 20.707 19.9973C20.3951 18.7753 19.8028 17.6852 19.2254 16.9215H15.7736Z" fill="#F29797"/>
<path d="M21.9429 14.5C21.9429 16.864 19.9537 18.7804 17.5 18.7804C15.0463 18.7804 13.0571 16.864 13.0571 14.5C13.0571 12.136 15.0463 10.2196 17.5 10.2196C19.9537 10.2196 21.9429 12.136 21.9429 14.5Z" fill="#3C6256"/>
<path fill-rule="evenodd" clip-rule="evenodd" d="M22.8314 14.5C22.8314 17.3368 20.4445 19.6365 17.5 19.6365C14.5555 19.6365 12.1685 17.3368 12.1685 14.5C12.1685 11.6632 14.5555 9.36353 17.5 9.36353C20.4445 9.36353 22.8314 11.6632 22.8314 14.5ZM17.5 18.7804C19.9537 18.7804 21.9429 16.864 21.9429 14.5C21.9429 12.136 19.9537 10.2196 17.5 10.2196C15.0463 10.2196 13.0571 12.136 13.0571 14.5C13.0571 16.864 15.0463 18.7804 17.5 18.7804Z" fill="#003222"/>
<path d="M20.1657 14.5C20.1657 15.9184 18.9722 17.0682 17.5 17.0682C16.0277 17.0682 14.8343 15.9184 14.8343 14.5C14.8343 13.0816 16.0277 11.9318 17.5 11.9318C18.9722 11.9318 20.1657 13.0816 20.1657 14.5Z" fill="#003222"/>
<path d="M20.8179 14.5563L19.092 11.7601L18.6666 12.0228L20.3925 14.8189L20.8179 14.5563ZM19.0916 17.2406L20.8175 14.4444L20.392 14.1818L18.6661 16.9779L19.0916 17.2406ZM14.6075 14.819L16.3334 12.0229L15.908 11.7603L14.1821 14.5564L14.6075 14.819ZM16.3339 16.9779L14.608 14.1818L14.1825 14.4444L15.9084 17.2405L16.3339 16.9779ZM15.7736 12.3285H19.2254V11.8285H15.7736V12.3285ZM15.7736 17.1715H19.2254V16.6715H15.7736V17.1715ZM21.6929 14.5C21.6929 16.7172 19.8245 18.5304 17.5 18.5304V19.0304C20.0829 19.0304 22.1929 17.0108 22.1929 14.5H21.6929ZM17.5 18.5304C15.1755 18.5304 13.3071 16.7172 13.3071 14.5H12.8071C12.8071 17.0108 14.917 19.0304 17.5 19.0304V18.5304ZM13.3071 14.5C13.3071 12.2828 15.1755 10.4696 17.5 10.4696V9.96961C14.917 9.96961 12.8071 11.9892 12.8071 14.5H13.3071ZM17.5 10.4696C19.8245 10.4696 21.6929 12.2828 21.6929 14.5H22.1929C22.1929 11.9892 20.0829 9.96961 17.5 9.96961V10.4696ZM18.8793 11.8915L18.4307 11.6706L19.2984 12.1642L18.8793 11.8915ZM29.084 8.24477L29.5838 8.25901L29.5928 7.94269L29.3108 7.79916L29.084 8.24477ZM20.6052 14.6876L20.5936 14.1877L20.5627 15.1858L20.6052 14.6876ZM26.4683 9.65732L26.9622 9.7355L27.0262 9.33087L26.6421 9.18849L26.4683 9.65732ZM20.2148 14.8984L19.7893 15.161L20.0372 15.5626L20.4524 15.3384L20.2148 14.8984ZM18.4889 12.1023L18.2513 11.6623L17.7851 11.9141L18.0634 12.3649L18.4889 12.1023ZM20.552 14.7163L21.0517 14.734L21.0826 13.8615L20.3145 14.2763L20.552 14.7163ZM20.5233 15.5274L20.0237 15.5097L20.0068 15.9852L20.4809 16.0256L20.5233 15.5274ZM26.3052 14.426L26.0697 13.9848L26.3052 14.426ZM29.9853 8.26724L30.4851 8.28148V8.28148L29.9853 8.26724ZM30 7.75087L30.4998 7.76512L30.5088 7.4488L30.2268 7.30526L30 7.75087ZM29.5149 7.504L29.2881 7.94961H29.2881L29.5149 7.504ZM21.9794 7.40181L22.2187 7.84084L21.9794 7.40181ZM18.0604 11.5386L17.6118 11.3177L17.3919 11.7643L17.8375 11.9862L18.0604 11.5386ZM18.8264 11.92L19.064 12.36L19.912 11.902L19.0492 11.4725L18.8264 11.92ZM24.1923 14.3507L24.0585 13.869L24.1923 14.3507ZM20.9863 9.15341L20.6549 8.77904L20.9863 9.15341ZM20.6047 14.3131L20.5618 13.815L20.5939 14.813L20.6047 14.3131ZM29.0835 20.756L29.3097 21.2019L29.5918 21.0588L29.5833 20.7425L29.0835 20.756ZM18.8788 17.1093L19.2975 16.8359L18.4305 17.3306L18.8788 17.1093ZM26.4678 19.3435L26.6412 19.8124L27.0254 19.6703L26.9617 19.2657L26.4678 19.3435ZM18.4884 16.8984L18.0629 16.6358L17.7847 17.0866L18.2508 17.3384L18.4884 16.8984ZM20.2143 14.1023L20.4519 13.6624L20.0367 13.4381L19.7888 13.8397L20.2143 14.1023ZM18.8257 17.0805L19.0491 17.5278L19.9099 17.0978L19.0632 16.6406L18.8257 17.0805ZM18.0603 17.4629L17.8369 17.0156L17.3916 17.238L17.612 17.6842L18.0603 17.4629ZM21.971 21.5957L21.7313 22.0344L21.971 21.5957ZM29.5133 21.4973L29.7395 21.9433V21.9433L29.5133 21.4973ZM29.9988 21.2511L30.225 21.697L30.5071 21.5538L30.4986 21.2376L29.9988 21.2511ZM29.9848 20.7347L29.485 20.7482V20.7482L29.9848 20.7347ZM26.3117 14.5796L26.0758 15.0204L26.3117 14.5796ZM20.522 13.4734L20.479 12.9752L20.0048 13.0161L20.0223 13.4918L20.522 13.4734ZM20.5518 14.2846L20.3142 14.7245L21.0836 15.14L21.0515 14.2662L20.5518 14.2846ZM20.9842 19.8465L21.3159 19.4724L20.9842 19.8465ZM24.1933 14.6509L24.0592 15.1326L24.1933 14.6509ZM16.1207 11.8916L15.7016 12.1643L16.5693 11.6707L16.1207 11.8916ZM5.91601 8.24487L5.68922 7.79926L5.4072 7.9428L5.41621 8.25912L5.91601 8.24487ZM14.3948 14.6877L14.4373 15.1859L14.4064 14.1878L14.3948 14.6877ZM8.5317 9.65742L8.35792 9.18859L7.97379 9.33097L8.03785 9.7356L8.5317 9.65742ZM14.7852 14.8985L14.5476 15.3385L14.9628 15.5627L15.2107 15.1611L14.7852 14.8985ZM16.5111 12.1024L16.9366 12.365L17.2149 11.9142L16.7487 11.6625L16.5111 12.1024ZM14.448 14.7164L14.6855 14.2764L13.9174 13.8616L13.9483 14.7341L14.448 14.7164ZM14.4767 15.5275L14.5191 16.0257L14.9932 15.9853L14.9763 15.5099L14.4767 15.5275ZM8.69483 14.4261L8.93026 13.985L8.69483 14.4261ZM5.01471 8.26734L5.51451 8.2531V8.2531L5.01471 8.26734ZM5 7.75098L4.77321 7.30537L4.49119 7.4489L4.5002 7.76522L5 7.75098ZM5.48509 7.5041L5.71188 7.94971H5.71188L5.48509 7.5041ZM13.0206 7.40192L12.7813 7.84094L13.0206 7.40192ZM16.9396 11.5387L17.1625 11.9863L17.6081 11.7644L17.3882 11.3178L16.9396 11.5387ZM16.1736 11.9201L15.9508 11.4726L15.088 11.9021L15.936 12.3601L16.1736 11.9201ZM10.8077 14.3508L10.9415 13.8691L10.8077 14.3508ZM14.0137 9.15352L14.3451 8.77915V8.77915L14.0137 9.15352ZM14.3952 14.3131L14.406 14.813L14.4382 13.8149L14.3952 14.3131ZM5.91648 20.756L5.41666 20.7424L5.40811 21.0587L5.69028 21.2019L5.91648 20.756ZM16.1211 17.1092L16.5694 17.3306L15.7025 16.8358L16.1211 17.1092ZM8.53217 19.3434L8.03827 19.2656L7.97452 19.6702L8.35871 19.8124L8.53217 19.3434ZM16.5115 16.8984L16.7491 17.3383L17.2153 17.0866L16.937 16.6357L16.5115 16.8984ZM14.7856 14.1022L15.2111 13.8396L14.9633 13.4381L14.548 13.6623L14.7856 14.1022ZM16.1743 17.0805L15.9367 16.6405L15.09 17.0978L15.9508 17.5278L16.1743 17.0805ZM16.9397 17.4628L17.388 17.6842L17.6083 17.2379L17.1631 17.0155L16.9397 17.4628ZM13.0289 21.5956L12.7892 21.1568L13.0289 21.5956ZM5.48664 21.4973L5.26043 21.9432H5.26043L5.48664 21.4973ZM5.00119 21.251L4.50137 21.2375L4.49282 21.5538L4.77499 21.6969L5.00119 21.251ZM5.01516 20.7346L4.51534 20.7211V20.7211L5.01516 20.7346ZM8.68828 14.5795L8.92416 15.0204L8.68828 14.5795ZM14.478 13.4733L14.9776 13.4917L14.9951 13.016L14.5209 12.9751L14.478 13.4733ZM14.4481 14.2845L13.9485 14.2661L13.9163 15.1399L14.6857 14.7244L14.4481 14.2845ZM14.0157 19.8464L14.3474 20.2206L14.0157 19.8464ZM10.8066 14.6508L10.9407 15.1325L10.8066 14.6508ZM19.2254 12.0785L18.7938 11.8262L19.6242 12.3801L19.2254 12.0785ZM17.4994 1.98895L17.7477 1.55495L17.4991 1.41271L17.2506 1.55527L17.4994 1.98895ZM15.7736 12.0785L15.3744 12.3797L16.2056 11.8269L15.7736 12.0785ZM17.4994 4.81405L17.7971 4.4123L17.4992 4.19161L17.2015 4.4125L17.4994 4.81405ZM15.7736 12.5002L15.2736 12.5002L15.2736 13.0002H15.7736V12.5002ZM19.2254 12.5002L19.2254 13.0002H19.7254V12.5002H19.2254ZM15.7736 12.1359L16.2736 12.1359L16.2736 11.2663L15.522 11.7038L15.7736 12.1359ZM15.0369 12.5648L14.6378 12.8659L14.905 13.2201L15.2884 12.9969L15.0369 12.5648ZM13.1658 7.3305L13.6658 7.3278L13.1658 7.3305ZM17.028 1.2701L17.2768 1.70378V1.70378L17.028 1.2701ZM17.4987 1L17.747 0.565993L17.4983 0.423755L17.2499 0.56632L17.4987 1ZM17.9698 1.2695L18.2181 0.835497L18.2181 0.835497L17.9698 1.2695ZM21.8322 7.32246L21.3322 7.32031V7.32031L21.8322 7.32246ZM19.9615 12.5655L19.7094 12.9973L20.0927 13.221L20.3604 12.867L19.9615 12.5655ZM19.2254 12.1357L19.4775 11.7039L18.7254 11.2648V12.1357H19.2254ZM14.2919 9.00444L14.7763 8.88045L14.2919 9.00444ZM20.707 9.00271L20.2225 8.87907V8.87907L20.707 9.00271ZM19.2254 16.9215L19.6242 16.6199L18.7938 17.1738L19.2254 16.9215ZM17.4994 27.011L17.2506 27.4447L17.499 27.5873L17.7477 27.4451L17.4994 27.011ZM15.7736 16.9215L16.2056 17.1731L15.3744 16.6203L15.7736 16.9215ZM17.4994 24.186L17.2015 24.5875L17.4992 24.8084L17.7971 24.5877L17.4994 24.186ZM15.7736 16.4998V15.9998H15.2736V16.4998H15.7736ZM19.2254 16.4998H19.7254V15.9998H19.2254V16.4998ZM15.7736 16.8641L15.522 17.2962L16.2736 17.7337V16.8641H15.7736ZM15.0369 16.4352L15.2884 16.0031L14.905 15.7799L14.6378 16.1341L15.0369 16.4352ZM13.1658 21.6695L13.6658 21.6722L13.1658 21.6695ZM17.028 27.7299L17.2768 27.2962L17.028 27.7299ZM17.4987 28L17.2499 28.4337L17.4983 28.5762L17.747 28.434L17.4987 28ZM17.9698 27.7305L17.7216 27.2965L17.9698 27.7305ZM21.8322 21.6775L21.3322 21.6797L21.8322 21.6775ZM19.9615 16.4345L20.3604 16.133L20.0927 15.779L19.7094 16.0027L19.9615 16.4345ZM19.2254 16.8643H18.7254V17.7352L19.4775 17.2961L19.2254 16.8643ZM14.2919 19.9956L13.8075 19.8716L14.2919 19.9956ZM20.707 19.9973L20.2225 20.1209L20.707 19.9973ZM19.3278 12.1124C19.8979 10.955 21.0511 9.45329 22.6727 8.56948C24.2656 7.70129 26.3406 7.40957 28.8572 8.69038L29.3108 7.79916C26.4914 6.3643 24.0677 6.67022 22.1941 7.69144C20.3491 8.69705 19.068 10.3766 18.4307 11.6706L19.3278 12.1124ZM28.5842 8.23053C28.5086 10.8821 27.221 12.3994 25.6229 13.2524C23.9912 14.1232 22.0161 14.3061 20.6477 14.1894L20.5627 15.1858C22.0598 15.3134 24.243 15.1224 26.0938 14.1346C27.9781 13.1288 29.4971 11.3026 29.5838 8.25901L28.5842 8.23053ZM19.2984 12.1642C19.7225 11.5123 20.6885 10.7019 21.9669 10.207C23.2321 9.71726 24.7551 9.55556 26.2945 10.1262L26.6421 9.18849C24.8299 8.5168 23.051 8.71507 21.6059 9.27443C20.174 9.82868 19.0213 10.7564 18.4602 11.6188L19.2984 12.1642ZM25.9745 9.57914C25.7355 11.0886 24.8388 12.2276 23.7555 13.0042C22.6626 13.7876 21.425 14.1685 20.5936 14.1877L20.6168 15.1874C21.6751 15.1629 23.1042 14.7014 24.3381 13.817C25.5815 12.9257 26.6715 11.5715 26.9622 9.7355L25.9745 9.57914ZM20.6403 14.6358L18.9144 11.8397L18.0634 12.3649L19.7893 15.161L20.6403 14.6358ZM20.3145 14.2763L19.9772 14.4585L20.4524 15.3384L20.7896 15.1562L20.3145 14.2763ZM21.023 15.5451L21.0517 14.734L20.0524 14.6986L20.0237 15.5097L21.023 15.5451ZM26.0697 13.9848C24.2337 14.9648 22.0601 15.1567 20.5658 15.0292L20.4809 16.0256C22.1037 16.164 24.4853 15.964 26.5406 14.8671L26.0697 13.9848ZM29.4855 8.253C29.4013 11.208 27.9333 12.9902 26.0697 13.9848L26.5406 14.8671C28.6904 13.7196 30.3897 11.6286 30.4851 8.28148L29.4855 8.253ZM29.5002 7.73663L29.4855 8.253L30.4851 8.28148L30.4998 7.76512L29.5002 7.73663ZM29.2881 7.94961L29.7732 8.19649L30.2268 7.30526L29.7417 7.05839L29.2881 7.94961ZM22.2187 7.84084C24.0751 6.82905 26.4856 6.52328 29.2881 7.94961L29.7417 7.05839C26.6363 5.47795 23.8771 5.79805 21.7402 6.96279L22.2187 7.84084ZM18.5089 11.7595C19.1327 10.4931 20.3942 8.83528 22.2187 7.84084L21.7402 6.96279C19.692 8.0791 18.3028 9.91479 17.6118 11.3177L18.5089 11.7595ZM19.0492 11.4725L18.2833 11.091L17.8375 11.9862L18.6035 12.3676L19.0492 11.4725ZM18.7265 12.5422L19.064 12.36L18.5888 11.4801L18.2513 11.6623L18.7265 12.5422ZM24.0585 13.869C22.8352 14.2087 21.5903 14.2698 20.6477 14.1894L20.5627 15.1858C21.6083 15.2749 22.974 15.208 24.326 14.8325L24.0585 13.869ZM28.5842 8.23053C28.5344 9.97775 27.9594 11.2177 27.1408 12.1001C26.3145 12.9909 25.2096 13.5493 24.0585 13.869L24.326 14.8325C25.599 14.479 26.887 13.8442 27.874 12.7801C28.8688 11.7077 29.5276 10.2312 29.5838 8.25901L28.5842 8.23053ZM21.3178 9.52778C22.1857 8.7594 23.2575 8.14067 24.5062 7.91509C25.7484 7.6907 27.2026 7.84831 28.8572 8.69038L29.3108 7.79916C27.4786 6.86672 25.8037 6.66452 24.3285 6.93102C22.8598 7.19632 21.6262 7.91916 20.6549 8.77904L21.3178 9.52778ZM19.3278 12.1124C19.7202 11.3156 20.3953 10.3445 21.3178 9.52778L20.6549 8.77904C19.6265 9.68954 18.8752 10.7681 18.4307 11.6706L19.3278 12.1124ZM20.6477 14.8113C22.019 14.693 23.9962 14.8793 25.6281 15.7525C27.2267 16.6078 28.5122 18.126 28.5836 20.7695L29.5833 20.7425C29.5012 17.7058 27.9839 15.8787 26.0999 14.8707C24.2492 13.8805 22.0638 13.6855 20.5618 13.815L20.6477 14.8113ZM28.8573 20.3101C26.3312 21.5916 24.2559 21.2976 22.6655 20.4287C21.0463 19.544 19.8972 18.0423 19.3271 16.8879L18.4305 17.3306C19.067 18.6196 20.3431 20.2993 22.1861 21.3062C24.0578 22.3289 26.4816 22.6366 29.3097 21.2019L28.8573 20.3101ZM20.5939 14.813C21.4267 14.831 22.6649 15.2138 23.7579 15.9988C24.8415 16.777 25.7368 17.9168 25.9739 19.4213L26.9617 19.2657C26.6731 17.4341 25.5842 16.0792 24.3413 15.1865C23.1078 14.3006 21.6773 13.8362 20.6155 13.8133L20.5939 14.813ZM26.2943 18.8745C24.7494 19.446 23.2265 19.2829 21.9629 18.7925C20.6861 18.2969 19.7221 17.4861 19.2975 16.8359L18.4602 17.3826C19.0209 18.2413 20.1702 19.1694 21.601 19.7247C23.045 20.2851 24.8239 20.4847 26.6412 19.8124L26.2943 18.8745ZM18.9139 17.161L20.6398 14.3649L19.7888 13.8397L18.0629 16.6358L18.9139 17.161ZM19.0632 16.6406L18.726 16.4585L18.2508 17.3384L18.5881 17.5205L19.0632 16.6406ZM18.2837 17.9102L19.0491 17.5278L18.6022 16.6333L17.8369 17.0156L18.2837 17.9102ZM22.2108 21.1569C20.3884 20.1612 19.1317 18.5033 18.5086 17.2415L17.612 17.6842C18.3014 19.0804 19.685 20.9165 21.7313 22.0344L22.2108 21.1569ZM29.2871 21.0514C26.4757 22.4776 24.0651 22.17 22.2108 21.1569L21.7313 22.0344C23.8669 23.2012 26.6261 23.5227 29.7395 21.9433L29.2871 21.0514ZM29.7725 20.8052L29.2871 21.0514L29.7395 21.9433L30.225 21.697L29.7725 20.8052ZM29.485 20.7482L29.4989 21.2646L30.4986 21.2376L30.4846 20.7212L29.485 20.7482ZM26.0758 15.0204C27.9391 16.0174 29.4052 17.8003 29.485 20.7482L30.4846 20.7212C30.3942 17.38 28.6961 15.2882 26.5475 14.1387L26.0758 15.0204ZM20.5649 13.9715C22.0641 13.8423 24.2399 14.0382 26.0758 15.0204L26.5475 14.1387C24.4928 13.0393 22.1087 12.8347 20.479 12.9752L20.5649 13.9715ZM21.0515 14.2662L21.0216 13.455L20.0223 13.4918L20.0521 14.3029L21.0515 14.2662ZM19.9767 14.5423L20.3142 14.7245L20.7894 13.8446L20.4519 13.6624L19.9767 14.5423ZM21.3159 19.4724C20.394 18.6551 19.72 17.6834 19.3271 16.8879L18.4305 17.3306C18.8748 18.2304 19.6246 19.3094 20.6525 20.2206L21.3159 19.4724ZM28.8573 20.3101C27.1974 21.1522 25.7416 21.3092 24.4998 21.0846C23.2516 20.8588 22.1819 20.2401 21.3159 19.4724L20.6525 20.2206C21.6218 21.08 22.8534 21.803 24.3218 22.0686C25.7967 22.3354 27.4728 22.1337 29.3097 21.2019L28.8573 20.3101ZM24.0592 15.1326C25.2119 15.4535 26.318 16.0136 27.1443 16.9049C27.9628 17.7878 28.5365 19.0267 28.5836 20.7695L29.5833 20.7425C29.53 18.7738 28.8723 17.2979 27.8776 16.2251C26.8908 15.1606 25.6019 14.524 24.3274 14.1692L24.0592 15.1326ZM20.6477 14.8113C21.5913 14.7299 22.8362 14.7921 24.0592 15.1326L24.3274 14.1692C22.9759 13.793 21.6097 13.7246 20.5618 13.815L20.6477 14.8113ZM16.5693 11.6707C15.932 10.3767 14.6509 8.69715 12.8059 7.69154C10.9323 6.67033 8.50856 6.36441 5.68922 7.79926L6.14279 8.69048C8.65944 7.40967 10.7344 7.7014 12.3273 8.56959C13.9489 9.45339 15.1021 10.9551 15.6722 12.1125L16.5693 11.6707ZM5.41621 8.25912C5.50294 11.3027 7.02187 13.1289 8.90625 14.1347C10.757 15.1225 12.9402 15.3135 14.4373 15.1859L14.3523 14.1895C12.9839 14.3062 11.0088 14.1234 9.37711 13.2525C7.77905 12.3995 6.49136 10.8822 6.4158 8.23063L5.41621 8.25912ZM16.5398 11.6189C15.9787 10.7565 14.826 9.82879 13.3941 9.27454C11.949 8.71518 10.1701 8.5169 8.35792 9.18859L8.70547 10.1263C10.2449 9.55566 11.7679 9.71737 13.0331 10.2071C14.3115 10.702 15.2775 11.5124 15.7016 12.1643L16.5398 11.6189ZM8.03785 9.7356C8.32849 11.5716 9.41853 12.9258 10.6619 13.8171C11.8958 14.7015 13.3249 15.1631 14.3832 15.1876L14.4064 14.1878C13.575 14.1686 12.3374 13.7877 11.2445 13.0043C10.1612 12.2277 9.2645 11.0887 9.02555 9.57925L8.03785 9.7356ZM15.2107 15.1611L16.9366 12.365L16.0856 11.8398L14.3597 14.6359L15.2107 15.1611ZM14.2104 15.1563L14.5476 15.3385L15.0228 14.4586L14.6855 14.2764L14.2104 15.1563ZM14.9763 15.5099L14.9476 14.6987L13.9483 14.7341L13.977 15.5452L14.9763 15.5099ZM8.4594 14.8672C10.5147 15.9641 12.8963 16.1641 14.5191 16.0257L14.4342 15.0293C12.9399 15.1568 10.7663 14.9649 8.93026 13.985L8.4594 14.8672ZM4.51492 8.28159C4.61029 11.6287 6.30964 13.7198 8.4594 14.8672L8.93026 13.985C7.06669 12.9903 5.59871 11.2081 5.51451 8.2531L4.51492 8.28159ZM4.5002 7.76522L4.51492 8.28159L5.51451 8.2531L5.4998 7.73674L4.5002 7.76522ZM5.2583 7.05849L4.77321 7.30537L5.22679 8.19659L5.71188 7.94971L5.2583 7.05849ZM13.2598 6.9629C11.1229 5.79816 8.36368 5.47806 5.2583 7.05849L5.71188 7.94971C8.51444 6.52339 10.9249 6.82916 12.7813 7.84094L13.2598 6.9629ZM17.3882 11.3178C16.6972 9.9149 15.308 8.07921 13.2598 6.9629L12.7813 7.84094C14.6058 8.83539 15.8673 10.4932 16.4911 11.7596L17.3882 11.3178ZM16.3965 12.3677L17.1625 11.9863L16.7167 11.0911L15.9508 11.4726L16.3965 12.3677ZM16.7487 11.6625L16.4112 11.4802L15.936 12.3601L16.2735 12.5423L16.7487 11.6625ZM10.674 14.8326C12.026 15.2081 13.3917 15.275 14.4373 15.1859L14.3523 14.1895C13.4097 14.2699 12.1648 14.2088 10.9415 13.8691L10.674 14.8326ZM5.41621 8.25912C5.47241 10.2313 6.13119 11.7078 7.12602 12.7802C8.11304 13.8443 9.40102 14.4791 10.674 14.8326L10.9415 13.8691C9.79039 13.5494 8.68549 12.991 7.85916 12.1002C7.04064 11.2178 6.46559 9.97785 6.4158 8.23063L5.41621 8.25912ZM14.3451 8.77915C13.3738 7.91927 12.1402 7.19643 10.6715 6.93112C9.19633 6.66463 7.52137 6.86682 5.68922 7.79926L6.14279 8.69048C7.79736 7.84842 9.25162 7.6908 10.4938 7.91519C11.7425 8.14077 12.8143 8.75951 13.6822 9.52789L14.3451 8.77915ZM16.5693 11.6707C16.1248 10.7682 15.3735 9.68964 14.3451 8.77915L13.6822 9.52789C14.6047 10.3446 15.2798 11.3157 15.6722 12.1125L16.5693 11.6707ZM14.4382 13.8149C12.9361 13.6854 10.7508 13.8805 8.90007 14.8707C7.01607 15.8787 5.49879 17.7058 5.41666 20.7424L6.4163 20.7695C6.48779 18.1259 7.77321 16.6077 9.37183 15.7524C11.0038 14.8792 12.9809 14.693 14.3523 14.8112L14.4382 13.8149ZM5.69028 21.2019C8.51833 22.6365 10.9421 22.3288 12.8139 21.3062C14.6569 20.2992 15.933 18.6195 16.5694 17.3306L15.6728 16.8878C15.1028 18.0422 13.9536 19.5439 12.3344 20.4286C10.744 21.2975 8.66877 21.5915 6.14269 20.3101L5.69028 21.2019ZM14.3844 13.8132C13.3226 13.8362 11.8922 14.3006 10.6587 15.1865C9.41572 16.0792 8.32682 17.4341 8.03827 19.2656L9.02608 19.4212C9.26312 17.9167 10.1585 16.7769 11.242 15.9987C12.335 15.2137 13.5733 14.831 14.406 14.813L14.3844 13.8132ZM8.35871 19.8124C10.1761 20.4846 11.9549 20.2851 13.3989 19.7246C14.8297 19.1693 15.979 18.2412 16.5398 17.3826L15.7025 16.8358C15.2779 17.486 14.3138 18.2969 13.0371 18.7924C11.7735 19.2828 10.2505 19.4459 8.70564 18.8745L8.35871 19.8124ZM16.937 16.6357L15.2111 13.8396L14.3602 14.3649L16.0861 17.161L16.937 16.6357ZM16.4119 17.5204L16.7491 17.3383L16.274 16.4584L15.9367 16.6405L16.4119 17.5204ZM17.1631 17.0155L16.3977 16.6332L15.9508 17.5278L16.7162 17.9101L17.1631 17.0155ZM13.2686 22.0344C15.3149 20.9164 16.6986 19.0803 17.388 17.6842L16.4913 17.2414C15.8683 18.5032 14.6115 20.1611 12.7892 21.1568L13.2686 22.0344ZM5.26043 21.9432C8.37388 23.5226 11.133 23.2012 13.2686 22.0344L12.7892 21.1568C10.9348 22.1699 8.52421 22.4776 5.71284 21.0514L5.26043 21.9432ZM4.77499 21.6969L5.26043 21.9432L5.71284 21.0514L5.2274 20.8051L4.77499 21.6969ZM4.51534 20.7211L4.50137 21.2375L5.50101 21.2645L5.51497 20.7481L4.51534 20.7211ZM8.4524 14.1386C6.30386 15.2882 4.6057 17.3799 4.51534 20.7211L5.51497 20.7481C5.5947 17.8003 7.06086 16.0173 8.92416 15.0204L8.4524 14.1386ZM14.5209 12.9751C12.8912 12.8346 10.5071 13.0393 8.4524 14.1386L8.92416 15.0204C10.76 14.0381 12.9359 13.8422 14.435 13.9714L14.5209 12.9751ZM14.9478 14.3029L14.9776 13.4917L13.9783 13.4549L13.9485 14.2661L14.9478 14.3029ZM14.548 13.6623L14.2106 13.8445L14.6857 14.7244L15.0232 14.5422L14.548 13.6623ZM14.3474 20.2206C15.3754 19.3093 16.1251 18.2304 16.5694 17.3306L15.6728 16.8878C15.28 17.6833 14.6059 18.655 13.684 19.4723L14.3474 20.2206ZM5.69028 21.2019C7.52709 22.1337 9.20326 22.3354 10.6781 22.0685C12.1465 21.8029 13.3781 21.0799 14.3474 20.2206L13.684 19.4723C12.818 20.24 11.7484 20.8587 10.5001 21.0845C9.25837 21.3091 7.80255 21.1521 6.14269 20.3101L5.69028 21.2019ZM10.6725 14.1692C9.39802 14.524 8.10915 15.1606 7.12233 16.225C6.12764 17.2979 5.46991 18.7737 5.41666 20.7424L6.4163 20.7695C6.46343 19.0266 7.03717 17.7877 7.85565 16.9049C8.68199 16.0136 9.788 15.4534 10.9407 15.1325L10.6725 14.1692ZM14.4382 13.8149C13.3902 13.7246 12.0241 13.7929 10.6725 14.1692L10.9407 15.1325C12.1637 14.792 13.4086 14.7299 14.3523 14.8112L14.4382 13.8149ZM19.6242 12.3801C20.5004 11.2211 21.4219 9.33727 21.4306 7.32122C21.4394 5.25963 20.4907 3.12409 17.7477 1.55495L17.2512 2.42296C19.6905 3.81836 20.4378 5.62578 20.4306 7.31693C20.4231 9.05363 19.6164 10.7323 18.8265 11.777L19.6242 12.3801ZM17.2506 1.55527C14.5034 3.13159 13.5563 5.26815 13.5674 7.32894C13.5783 9.34395 14.5025 11.2239 15.3744 12.3797L16.1727 11.7774C15.3856 10.7341 14.5768 9.05881 14.5674 7.32354C14.5583 5.63405 15.3036 3.82534 17.7483 2.42263L17.2506 1.55527ZM19.657 12.3309C20.1768 11.442 20.4634 10.0325 20.2582 8.57842C20.0507 7.10777 19.3343 5.55122 17.7971 4.4123L17.2018 5.2158C18.4906 6.17066 19.0918 7.46878 19.2681 8.71814C19.4467 9.98403 19.1833 11.1599 18.7938 11.8262L19.657 12.3309ZM17.2015 4.4125C15.6612 5.55535 14.9459 7.11251 14.74 8.58284C14.5363 10.0366 14.825 11.4434 15.3415 12.3302L16.2056 11.8269C15.8178 11.161 15.5531 9.98646 15.7303 8.72158C15.9052 7.47324 16.505 6.17445 17.7974 5.21559L17.2015 4.4125ZM15.7736 13.0002L19.2254 13.0002L19.2254 12.0002L15.7736 12.0002V13.0002ZM15.2736 12.1359L15.2736 12.5002L16.2736 12.5002L16.2736 12.1359L15.2736 12.1359ZM15.2884 12.9969L16.0251 12.5681L15.522 11.7038L14.7854 12.1326L15.2884 12.9969ZM12.6658 7.33321C12.6779 9.56843 13.693 11.6137 14.6378 12.8659L15.4361 12.2636C14.5761 11.1238 13.6764 9.28316 13.6658 7.3278L12.6658 7.33321ZM16.7791 0.836421C13.7552 2.57154 12.6531 4.98662 12.6658 7.33321L13.6658 7.3278C13.6551 5.35239 14.5556 3.26521 17.2768 1.70378L16.7791 0.836421ZM17.2499 0.56632L16.7791 0.836422L17.2768 1.70378L17.7476 1.43368L17.2499 0.56632ZM18.2181 0.835497L17.747 0.565993L17.2504 1.43401L17.7216 1.70351L18.2181 0.835497ZM22.3322 7.3246C22.3422 4.97796 21.239 2.56356 18.2181 0.835497L17.7216 1.70351C20.4386 3.25775 21.3407 5.34395 21.3322 7.32031L22.3322 7.3246ZM20.3604 12.867C21.3106 11.6102 22.3226 9.56053 22.3322 7.3246L21.3322 7.32031C21.3238 9.27676 20.4267 11.1212 19.5627 12.2639L20.3604 12.867ZM18.9733 12.5675L19.7094 12.9973L20.2136 12.1337L19.4775 11.7039L18.9733 12.5675ZM19.7254 12.5002V12.1357H18.7254V12.5002H19.7254ZM13.8075 9.12843C14.139 10.4232 14.7649 11.5718 15.3744 12.3797L16.1727 11.7774C15.6311 11.0595 15.0704 10.0294 14.7763 8.88045L13.8075 9.12843ZM17.2506 1.55527C15.4692 2.57742 14.4324 3.84163 13.9343 5.19052C13.4389 6.53236 13.495 7.90743 13.8075 9.12843L14.7763 8.88045C14.5001 7.80128 14.4646 6.64138 14.8724 5.5369C15.2776 4.43948 16.139 3.34602 17.7483 2.42263L17.2506 1.55527ZM21.1914 9.12634C21.5035 7.90343 21.5584 6.52678 21.0626 5.18494C20.564 3.83595 19.5274 2.57298 17.7477 1.55495L17.2512 2.42296C18.8578 3.34205 19.7189 4.43398 20.1246 5.53159C20.5328 6.63635 20.4984 7.79802 20.2225 8.87907L21.1914 9.12634ZM19.6242 12.3801C20.2361 11.5708 20.861 10.4212 21.1914 9.12634L20.2225 8.87907C19.9292 10.0282 19.3695 11.0589 18.8265 11.777L19.6242 12.3801ZM18.8265 17.223C19.6164 18.2677 20.4231 19.9464 20.4306 21.6831C20.4378 23.3742 19.6905 25.1816 17.2512 26.577L17.7477 27.4451C20.4907 25.8759 21.4394 23.7404 21.4306 21.6788C21.4219 19.6627 20.5004 17.7789 19.6242 16.6199L18.8265 17.223ZM17.7483 26.5774C15.3036 25.1747 14.5583 23.3659 14.5674 21.6765C14.5768 19.9412 15.3856 18.2659 16.1727 17.2226L15.3744 16.6203C14.5025 17.7761 13.5783 19.6561 13.5674 21.6711C13.5563 23.7319 14.5034 25.8684 17.2506 27.4447L17.7483 26.5774ZM18.7938 17.1738C19.1833 17.8401 19.4467 19.016 19.2681 20.2819C19.0918 21.5312 18.4906 22.8293 17.2018 23.7842L17.7971 24.5877C19.3343 23.4488 20.0507 21.8922 20.2582 20.4216C20.4634 18.9675 20.1768 17.558 19.657 16.6691L18.7938 17.1738ZM17.7974 23.7844C16.505 22.8256 15.9052 21.5268 15.7303 20.2784C15.5531 19.0135 15.8178 17.839 16.2056 17.1731L15.3415 16.6698C14.825 17.5566 14.5363 18.9634 14.74 20.4172C14.9459 21.8875 15.6612 23.4447 17.2015 24.5875L17.7974 23.7844ZM15.7736 16.9998H19.2254V15.9998H15.7736V16.9998ZM16.2736 16.8641V16.4998H15.2736V16.8641H16.2736ZM14.7854 16.8674L15.522 17.2962L16.0251 16.4319L15.2884 16.0031L14.7854 16.8674ZM13.6658 21.6722C13.6764 19.7168 14.5761 17.8762 15.4361 16.7364L14.6378 16.1341C13.693 17.3863 12.6779 19.4316 12.6658 21.6668L13.6658 21.6722ZM17.2768 27.2962C14.5556 25.7348 13.6551 23.6476 13.6658 21.6722L12.6658 21.6668C12.6531 24.0134 13.7552 26.4285 16.7791 28.1636L17.2768 27.2962ZM17.7476 27.5663L17.2768 27.2962L16.7791 28.1636L17.2499 28.4337L17.7476 27.5663ZM17.7216 27.2965L17.2504 27.566L17.747 28.434L18.2181 28.1645L17.7216 27.2965ZM21.3322 21.6797C21.3407 23.656 20.4386 25.7422 17.7216 27.2965L18.2181 28.1645C21.239 26.4364 22.3422 24.022 22.3322 21.6754L21.3322 21.6797ZM19.5627 16.7361C20.4267 17.8788 21.3238 19.7232 21.3322 21.6797L22.3322 21.6754C22.3226 19.4395 21.3106 17.3898 20.3604 16.133L19.5627 16.7361ZM19.4775 17.2961L20.2136 16.8663L19.7094 16.0027L18.9733 16.4325L19.4775 17.2961ZM18.7254 16.4998V16.8643H19.7254V16.4998H18.7254ZM14.7763 20.1195C15.0704 18.9706 15.6311 17.9405 16.1727 17.2226L15.3744 16.6203C14.7649 17.4282 14.139 18.5768 13.8075 19.8716L14.7763 20.1195ZM17.7483 26.5774C16.139 25.654 15.2776 24.5605 14.8724 23.4631C14.4646 22.3586 14.5001 21.1987 14.7763 20.1195L13.8075 19.8716C13.495 21.0926 13.4389 22.4676 13.9343 23.8095C14.4324 25.1584 15.4692 26.4226 17.2506 27.4447L17.7483 26.5774ZM20.2225 20.1209C20.4984 21.202 20.5328 22.3636 20.1246 23.4684C19.7189 24.566 18.8578 25.6579 17.2512 26.577L17.7477 27.4451C19.5273 26.427 20.564 25.1641 21.0626 23.8151C21.5584 22.4732 21.5035 21.0966 21.1914 19.8737L20.2225 20.1209ZM18.8265 17.223C19.3695 17.9411 19.9292 18.9718 20.2225 20.1209L21.1914 19.8737C20.861 18.5788 20.2361 17.4292 19.6242 16.6199L18.8265 17.223ZM17.5 20.1365C20.7029 20.1365 23.3314 17.6303 23.3314 14.5H22.3314C22.3314 17.0433 20.186 19.1365 17.5 19.1365V20.1365ZM11.6685 14.5C11.6685 17.6303 14.2971 20.1365 17.5 20.1365V19.1365C14.8139 19.1365 12.6685 17.0433 12.6685 14.5H11.6685ZM17.5 8.86353C14.2971 8.86353 11.6685 11.3697 11.6685 14.5H12.6685C12.6685 11.9567 14.8139 9.86353 17.5 9.86353V8.86353ZM23.3314 14.5C23.3314 11.3697 20.7029 8.86353 17.5 8.86353V9.86353C20.186 9.86353 22.3314 11.9567 22.3314 14.5H23.3314ZM19.6657 14.5C19.6657 15.6249 18.7138 16.5682 17.5 16.5682V17.5682C19.2306 17.5682 20.6657 16.2119 20.6657 14.5H19.6657ZM17.5 16.5682C16.2862 16.5682 15.3343 15.6249 15.3343 14.5H14.3343C14.3343 16.2119 15.7693 17.5682 17.5 17.5682V16.5682ZM15.3343 14.5C15.3343 13.3751 16.2862 12.4318 17.5 12.4318V11.4318C15.7693 11.4318 14.3343 12.7881 14.3343 14.5H15.3343ZM17.5 12.4318C18.7138 12.4318 19.6657 13.3751 19.6657 14.5H20.6657C20.6657 12.7881 19.2306 11.4318 17.5 11.4318V12.4318Z" fill="#B4A56A" mask="url(#path-1-outside-1_287_560)"/>
</g>
<defs>
<filter id="filter0_d_287_560" x="0.491196" y="0.423767" width="34.0176" height="36.1525" filterUnits="userSpaceOnUse" color-interpolation-filters="sRGB">
<feFlood flood-opacity="0" result="BackgroundImageFix"/>
<feColorMatrix in="SourceAlpha" type="matrix" values="0 0 0 0 0 0 0 0 0 0 0 0 0 0 0 0 0 0 127 0" result="hardAlpha"/>
<feOffset dy="4"/>
<feGaussianBlur stdDeviation="2"/>
<feComposite in2="hardAlpha" operator="out"/>
<feColorMatrix type="matrix" values="0 0 0 0 0 0 0 0 0 0 0 0 0 0 0 0 0 0 0.5 0"/>
<feBlend mode="normal" in2="BackgroundImageFix" result="effect1_dropShadow_287_560"/>
<feBlend mode="normal" in="SourceGraphic" in2="effect1_dropShadow_287_560" result="shape"/>
</filter>
</defs>
</svg>
